<?xml version="1.0" standalone="no"?>
<!DOCTYPE svg PUBLIC "-//W3C//DTD SVG 20010904//EN"
 "http://www.w3.org/TR/2001/REC-SVG-20010904/DTD/svg10.dtd">
<svg version="1.0" xmlns="http://www.w3.org/2000/svg"
 width="2048.000000pt" height="2048.000000pt" viewBox="0 0 2048.000000 2048.000000"
 preserveAspectRatio="xMidYMid meet">

<g transform="translate(0.000000,2048.000000) scale(0.100000,-0.100000)"
fill="#000000" stroke="none">
<path d="M0 10240 l0 -10240 10240 0 10240 0 0 10240 0 10240 -10240 0 -10240
0 0 -10240z m13760 2588 l175 -12 -150 -8 c-576 -29 -1117 -121 -1715 -293
-702 -202 -1292 -433 -2014 -790 -726 -359 -1358 -744 -2254 -1374 -235 -166
-311 -214 -342 -218 -126 -17 -339 214 -405 440 l-16 57 -30 -29 c-34 -35
-335 -193 -358 -189 -24 5 -77 101 -84 150 -3 24 -2 59 3 78 4 19 8 26 9 15 2
-30 45 -117 69 -138 31 -28 42 -13 42 62 0 113 55 284 115 356 16 20 16 20 10
-5 -38 -154 -42 -206 -24 -288 19 -91 25 -93 113 -32 42 29 97 71 121 93 25
21 47 38 49 36 1 -2 10 -35 19 -74 37 -153 144 -303 244 -341 103 -40 179 3
317 176 181 229 516 547 801 762 123 93 438 301 617 409 163 97 603 321 833
422 1261 557 2634 818 3855 735z m-1572 -648 c103 -63 64 -217 -64 -249 -150
-38 -250 82 -169 205 39 61 166 84 233 44z m-630 -134 c76 -40 122 -126 122
-225 0 -114 -62 -216 -163 -267 l-49 -26 63 -31 c50 -25 70 -42 94 -81 28 -46
30 -57 30 -140 0 -78 -4 -99 -27 -148 -54 -117 -155 -191 -301 -222 -54 -12
-149 -16 -380 -18 -305 -3 -307 -3 -307 18 0 11 16 117 35 235 20 117 49 304
66 414 16 110 33 203 37 207 17 17 713 297 740 298 7 0 25 -6 40 -14z m1297
-186 c22 -9 54 -31 70 -48 17 -18 33 -32 37 -32 3 0 9 18 13 40 l7 40 140 0
c128 0 139 -1 134 -17 -3 -10 -37 -223 -75 -473 -84 -546 -97 -591 -210 -693
-65 -58 -181 -107 -257 -107 l-32 0 -21 -117 c-12 -65 -35 -194 -51 -288 -16
-93 -33 -181 -36 -194 -6 -21 0 -18 48 21 105 86 237 132 374 131 208 -2 333
-90 380 -268 28 -102 17 -212 -69 -735 l-82 -495 -228 -3 c-125 -1 -227 1
-227 6 0 11 88 564 126 788 38 229 24 287 -76 314 -108 29 -274 -64 -309 -174
-7 -21 -161 -910 -161 -930 0 0 -101 -2 -225 -4 -193 -3 -225 -1 -225 12 0 24
312 1887 325 1945 6 22 9 23 63 16 61 -7 63 -4 10 25 -27 15 -33 23 -31 48 3
27 47 169 56 178 2 2 35 -10 73 -28 58 -27 83 -33 162 -36 137 -6 200 23 236
108 15 38 32 130 23 130 -3 0 -25 -13 -49 -29 -70 -46 -139 -64 -227 -59 -123
7 -194 57 -248 173 -26 56 -28 68 -28 190 1 120 3 137 33 223 40 115 81 181
160 254 113 104 276 140 397 88z m-659 -27 c-3 -16 -38 -221 -76 -458 -39
-236 -73 -442 -76 -457 l-6 -28 -149 0 -148 0 5 28 c6 36 154 925 154 928 0 2
44 5 98 7 53 1 121 4 150 5 54 2 54 2 48 -25z m-2571 -725 c55 -73 99 -166
126 -261 30 -106 33 -296 5 -397 -97 -356 -418 -600 -787 -600 -319 0 -609
181 -719 448 -50 122 -52 114 48 168 48 26 126 71 174 101 47 29 88 53 91 53
2 0 7 -19 11 -41 10 -65 55 -149 108 -202 193 -193 524 -136 641 111 29 61 32
76 32 167 0 88 -3 107 -27 158 -15 32 -51 81 -82 112 l-54 55 76 36 c42 21
127 61 187 90 61 29 115 53 120 53 6 1 28 -23 50 -51z m1680 -553 c33 -9 102
-37 154 -62 315 -152 452 -529 360 -988 -102 -505 -415 -834 -862 -905 -108
-18 -329 -8 -430 19 -252 66 -417 239 -493 516 -11 40 -18 116 -21 225 -4 149
-2 177 21 291 40 199 100 352 189 484 53 79 186 216 264 271 108 78 275 145
418 167 68 11 341 -1 400 -18z m2982 -27 c-38 -224 -89 -465 -138 -653 -139
-528 -169 -638 -172 -642 -2 -2 -66 -6 -141 -8 l-136 -5 0 43 c0 24 4 101 10
173 5 71 17 257 25 414 12 239 54 653 70 698 3 9 62 12 246 12 l242 0 -6 -32z
m-7357 -96 c0 -4 63 -93 140 -197 283 -385 354 -506 406 -695 14 -52 27 -101
30 -108 17 -55 470 -127 1084 -172 146 -11 340 -25 432 -32 92 -7 162 -16 155
-20 -7 -4 -33 -8 -59 -8 -26 0 -154 -14 -285 -30 -606 -77 -996 -162 -1384
-302 -159 -57 -173 -61 -205 -49 -34 12 -36 11 -127 -56 -50 -38 -156 -113
-234 -167 -233 -160 -312 -265 -354 -470 -26 -125 -25 -327 1 -498 11 -72 19
-132 17 -134 -6 -7 -175 217 -262 346 -186 277 -307 571 -350 845 -21 132 -16
357 9 475 68 309 265 661 538 962 102 112 184 178 316 255 104 59 132 71 132
55z m1760 -1387 c-418 -97 -825 -245 -996 -363 -32 -22 -87 -69 -120 -104 -41
-43 -74 -68 -100 -76 -66 -19 -610 -79 -621 -68 -15 14 203 151 352 221 402
189 891 329 1395 400 231 32 259 29 90 -10z m5247 -1 c136 -84 123 -306 -24
-403 -125 -83 -307 -52 -366 62 -65 126 7 302 146 357 77 30 180 23 244 -16z"/>
<path d="M11095 11868 c-6 -20 -35 -216 -35 -240 0 -19 4 -20 98 -16 75 3 106
8 132 24 49 28 80 78 80 128 0 84 -51 116 -185 116 -60 0 -87 -4 -90 -12z"/>
<path d="M10996 11273 c-10 -71 -20 -139 -23 -152 l-6 -24 120 5 c103 3 127 8
169 29 121 62 124 226 5 259 -20 5 -83 10 -141 10 l-106 0 -18 -127z"/>
<path d="M12735 11635 c-86 -31 -151 -142 -162 -277 -11 -123 39 -198 131
-198 48 0 116 31 135 62 8 13 27 97 42 188 24 146 26 168 13 187 -28 44 -97
61 -159 38z"/>
<path d="M10950 10180 c-257 -54 -440 -374 -441 -770 0 -253 96 -397 282 -425
88 -13 208 25 295 92 90 71 195 256 233 413 59 244 47 447 -35 570 -61 92
-209 145 -334 120z"/>
<path d="M6847 9713 c-28 -27 26 -96 110 -141 61 -32 218 -82 259 -82 30 0 32
26 5 78 -37 72 -106 116 -219 141 -58 12 -145 15 -155 4z"/>
</g>
</svg>
